<svg xmlns:xlink="http://www.w3.org/1999/xlink" version="1.1" id="Ebene_1" xmlns="http://www.w3.org/2000/svg" x="0px" y="0px" viewBox="0.01 2.9 131.29 20.9" style="enable-background:new 0 0 226 30;" xml:space="preserve">
<style type="text/css">
	.st0{fill:#FF0000;}
</style>
    <title>Webfleet_logo</title>
    <path d="M54.9,23.8c-3.9,0-7.4-2.6-7.4-7.5c0-4.7,3.3-7.4,7.2-7.4s6.7,2.7,6.8,7c0,0.9,0,1.2,0,1.5h-9.9c0.1,2,1.7,3.3,3.5,3.3  c1.5,0,2.7-0.7,3.4-1.9l2.8,1.9C60.2,22.5,58,23.8,54.9,23.8z M51.7,14.6h5.7c-0.2-1.8-1.5-2.6-2.9-2.6C53.1,12,51.8,12.9,51.7,14.6  z M66.7,21.9v1.5h-3.8V2.9H67v7.2c0.9-0.8,2.1-1.2,3.6-1.2c3.4,0,6.4,2.5,6.4,7.4s-3.1,7.4-6.4,7.4C68.9,23.7,67.6,23,66.7,21.9z   M72.9,16.3c0-2.6-1.4-3.7-3-3.7s-2.8,1.1-2.9,2.8v1.8c0,1.8,1.3,2.9,2.9,2.9S72.9,18.9,72.9,16.3z M101.7,23.8  c-3.9,0-7.4-2.6-7.4-7.5c0-4.7,3.3-7.4,7.2-7.4c3.9,0,6.7,2.7,6.8,7c0,0.9,0,1.2,0,1.5h-9.9c0.1,2,1.7,3.3,3.5,3.3  c1.5,0,2.7-0.7,3.4-1.9l2.8,1.9C106.9,22.5,104.8,23.8,101.7,23.8z M98.4,14.6h5.7c-0.1-1.8-1.4-2.6-2.8-2.6  C99.9,12,98.5,12.9,98.4,14.6z M116.5,23.8c-3.9,0-7.4-2.6-7.4-7.5c0-4.7,3.3-7.4,7.2-7.4c3.9,0,6.7,2.7,6.8,7c0,0.9,0,1.2,0,1.5  h-9.9c0.1,2,1.7,3.3,3.5,3.3c1.5,0,2.7-0.7,3.4-1.9l2.8,1.9C121.8,22.5,119.6,23.8,116.5,23.8z M113.2,14.6h5.7  c-0.1-1.8-1.4-2.6-2.8-2.6C114.7,12,113.4,12.9,113.2,14.6z M94.1,20.1c-0.6,0-1.1,0-1.3,0c-0.8,0-1.5-0.5-1.5-1.6V2.9h-4.1v15.6  c0,2,0.6,3.2,1.4,4c0.8,0.7,2,1,3.3,1c0.5,0,1.4,0,2.2,0V20.1z M131.2,20c-0.7,0-1,0-1.2,0c-0.8,0-1.5-0.5-1.5-1.6v-5.9h2.8V9.2  h-2.8V5.4h-4.1v3.7v3.4v5.9c0,2,0.6,3.2,1.4,4c0.8,0.7,2,1,3.3,1c0.6,0,1.2,0,2.2,0V20H131.2z M84.2,6.3c0.2,0,0.7,0,1.3,0V2.9  c-0.8,0-1.7,0-2.2,0c-1.2,0-2.4,0.3-3.3,1c-0.8,0.7-1.4,2-1.4,4v15.6h4.1V12.6h2.8V9.2h-2.8V7.9C82.7,6.9,83.4,6.3,84.2,6.3z   M44,9.2L41.7,18l-1.6-4c-0.4-0.9-1.2-1.5-2.2-1.5c-0.9,0-1.8,0.6-2.1,1.4L34.1,18l-2.2-8.9h-4.1l3.4,12.8c0.3,1.1,1.2,1.8,2.3,1.8  c1,0,1.8-0.6,2.2-1.4l2-4.6l2.1,4.6c0.4,0.9,1.2,1.4,2.2,1.4c1.1,0,2-0.7,2.3-1.8l3.5-12.7H44z"/>
    <path class="st0" d="M11.4,19.4c0.7,1.5,0.1,3.3-1.5,4.1c-1.5,0.7-3.3,0.1-4.1-1.5c-0.3-0.6-0.3-1.2-0.3-1.8l0,0  c0.2-1.4,0.4-3.5-0.3-5c-0.7-1.4-2.1-2.4-3.7-3.4l0,0c-0.5-0.3-0.9-0.7-1.2-1.3C-0.4,9,0.2,7.2,1.8,6.4C3.5,5.8,5.3,6.5,6,8  c0.3,0.6,0.3,1.2,0.3,1.8c-0.2,1.8-0.4,3.5,0.3,5s2.4,2.6,3.7,3.4l0,0C10.7,18.4,11.2,18.8,11.4,19.4z M18.4,18.1L18.4,18.1  c-1.2-0.7-3-1.9-3.7-3.4c-0.7-1.4-0.5-3.2-0.3-5c0.1-0.6,0-1.2-0.3-1.8c-0.7-1.5-2.5-2.2-4.1-1.5c-1.5,0.7-2.2,2.5-1.5,4.1  c0.3,0.6,0.7,1,1.2,1.3l0,0c1.5,0.9,3,1.9,3.7,3.4s0.5,3.5,0.3,5l0,0c-0.1,0.6,0,1.2,0.3,1.8c0.7,1.5,2.5,2.2,4.1,1.5  c1.5-0.7,2.2-2.5,1.5-4.1C19.3,18.8,18.9,18.4,18.4,18.1z M23.2,7.4c-1-1.3-2.9-1.6-4.3-0.6c-1,0.8-1.4,2-1.1,3.1l0,0  c0.8,3.3,0.8,3.3,1,4.2l0,0c0.1,0.4,0.5,0.7,1,0.6c0.2,0,0.4-0.1,0.5-0.3l0,0c0.6-0.7,0.6-0.7,2.8-3.3l0,0  C24,10.2,24.1,8.6,23.2,7.4z"/>
</svg>